<?xml version="1.0" standalone="no"?>
<!DOCTYPE svg PUBLIC "-//W3C//DTD SVG 20010904//EN"
 "http://www.w3.org/TR/2001/REC-SVG-20010904/DTD/svg10.dtd">
<svg version="1.0" xmlns="http://www.w3.org/2000/svg"
 width="600.000000pt" height="600.000000pt" viewBox="0 0 600.000000 600.000000"
 preserveAspectRatio="xMidYMid meet">
<metadata>
Created by potrace 1.14, written by Peter Selinger 2001-2017
</metadata>
<g transform="translate(0.000000,600.000000) scale(0.100000,-0.100000)"
fill="#000000" stroke="none">
<path d="M490 5923 l0 -78 282 0 283 0 2 -770 c1 -423 2 -781 2 -795 1 -25 2
-25 82 -23 45 2 84 5 86 7 3 2 5 359 6 793 l2 788 272 1 c150 0 275 3 279 7 5
5 8 77 5 130 -1 16 -39 17 -651 17 l-650 0 0 -77z"/>
<path d="M1865 5130 c0 -573 3 -870 10 -871 11 -1 125 -1 140 0 6 1 10 140 10
399 -1 430 4 481 51 575 46 89 132 154 229 173 65 12 171 7 227 -12 64 -21
119 -75 144 -141 16 -43 18 -94 21 -513 2 -256 5 -470 7 -475 4 -11 127 -12
144 -1 10 6 8 923 -2 969 -4 15 -14 49 -22 75 -55 163 -189 240 -409 236 -157
-3 -250 -39 -345 -135 -21 -22 -40 -39 -42 -39 -2 0 -3 141 -3 313 l0 312 -80
3 -80 3 0 -871z"/>
<path d="M3431 5534 c-78 -18 -189 -76 -240 -125 -73 -70 -149 -205 -165 -292
-3 -12 -5 -22 -6 -22 -3 0 -10 -40 -17 -95 -14 -113 -5 -266 22 -370 10 -39
11 -43 23 -73 7 -16 12 -30 12 -33 0 -16 77 -121 116 -159 49 -46 152 -103
219 -121 96 -24 261 -22 364 6 164 45 265 134 324 285 23 59 29 108 15 113 -5
1 -37 2 -73 2 -62 0 -65 -1 -71 -27 -21 -86 -92 -175 -171 -217 -155 -79 -362
-56 -483 56 -82 76 -146 230 -145 352 l0 49 488 0 c268 0 487 3 488 6 8 45 2
141 -16 241 -29 166 -141 322 -274 383 -116 53 -284 70 -410 41z m255 -127
c142 -35 256 -169 281 -332 13 -88 60 -79 -395 -79 -222 -1 -406 2 -408 5 -2
4 5 42 16 84 57 222 202 341 405 331 44 -2 90 -6 101 -9z"/>
<path d="M843 4087 c-7 -12 -42 -159 -49 -207 -2 -19 -11 -60 -19 -90 -7 -30
-16 -68 -19 -85 -2 -16 -16 -82 -30 -145 -13 -63 -43 -203 -66 -310 -22 -107
-50 -235 -60 -285 -11 -49 -23 -100 -25 -112 -3 -13 -7 -33 -10 -45 -3 -13 -8
-36 -11 -52 -3 -16 -18 -91 -34 -166 -16 -75 -32 -152 -35 -171 -3 -19 -8 -41
-11 -50 -4 -14 7 -16 81 -16 78 1 86 2 90 21 16 71 47 215 51 236 3 14 16 75
29 137 14 61 26 122 29 135 16 87 20 104 30 113 10 9 93 77 121 98 5 4 56 43
112 87 56 44 104 80 107 80 3 0 60 -109 127 -242 67 -134 170 -337 229 -453
l107 -210 102 -1 c113 0 113 0 71 71 -41 69 -480 946 -480 958 1 6 26 31 58
55 31 23 73 56 92 72 19 16 40 33 45 37 25 19 214 171 250 201 22 18 45 36 50
41 47 35 375 301 373 302 -2 1 -47 2 -102 3 -107 2 -110 1 -216 -86 -19 -16
-39 -32 -45 -36 -18 -14 -220 -177 -225 -182 -3 -3 -25 -21 -50 -40 -25 -19
-47 -37 -50 -40 -3 -3 -36 -30 -75 -60 -38 -30 -72 -57 -75 -60 -3 -3 -36 -30
-75 -60 -38 -30 -72 -57 -75 -60 -3 -3 -61 -50 -130 -105 -69 -55 -127 -102
-130 -106 -16 -18 -80 -60 -80 -53 0 5 5 25 10 44 6 19 13 49 16 65 7 43 33
159 51 235 8 36 17 76 19 90 2 14 7 36 10 50 3 14 8 36 10 50 3 14 11 52 19
85 29 119 46 201 51 235 l5 35 -81 1 c-45 0 -84 -4 -87 -9z"/>
<path d="M2507 3644 c-1 -1 -20 -5 -42 -8 -32 -5 -97 -22 -155 -41 -83 -27
-215 -129 -285 -220 -137 -179 -206 -393 -200 -620 2 -85 7 -124 25 -170 69
-183 216 -267 455 -260 180 5 328 64 453 180 61 57 165 198 162 219 -1 5 2 12
7 15 14 10 40 75 61 152 28 100 32 129 37 234 15 315 -159 512 -458 519 -32 1
-59 1 -60 0z m140 -150 c134 -41 204 -152 208 -334 7 -295 -123 -554 -330
-655 -82 -41 -122 -49 -225 -49 -153 1 -248 64 -290 193 -20 62 -22 84 -17
183 6 120 6 122 33 220 84 308 376 516 621 442z"/>
<path d="M3816 3643 c-1 -2 -20 -5 -42 -7 -98 -12 -205 -62 -299 -142 -36 -31
-65 -52 -65 -47 0 4 5 27 10 51 6 23 13 58 16 78 l5 35 -77 -3 -78 -3 -18 -80
c-10 -44 -20 -93 -23 -108 -2 -16 -23 -114 -46 -220 -22 -105 -42 -198 -44
-207 -4 -19 -85 -398 -91 -425 -2 -11 -6 -31 -9 -45 -5 -28 -5 -28 -34 -160
-11 -52 -23 -110 -26 -129 -3 -19 -8 -38 -10 -41 -3 -4 -7 -25 -11 -45 -3 -21
-8 -47 -10 -59 -3 -11 -7 -32 -10 -46 -2 -14 -7 -31 -9 -38 -2 -7 -7 -31 -10
-55 l-6 -43 71 1 c83 0 81 -3 105 110 9 44 18 87 20 95 5 18 44 194 51 230 3
14 7 32 10 41 2 9 7 33 9 54 8 59 19 71 37 43 35 -52 91 -100 145 -125 48 -22
74 -27 154 -29 85 -2 120 2 208 22 78 17 203 91 281 166 110 105 222 312 244
452 4 21 8 41 10 45 15 24 23 222 11 280 -36 182 -150 307 -312 341 -50 11
-151 19 -157 13z m148 -161 c165 -75 210 -282 126 -575 -60 -211 -202 -381
-360 -433 -69 -22 -200 -27 -260 -8 -65 19 -128 77 -158 144 -34 76 -39 226
-11 355 10 50 22 97 26 105 3 8 7 22 9 31 2 9 19 50 38 91 73 158 175 255 316
299 79 24 209 20 274 -9z"/>
<path d="M4385 3568 c9 -55 12 -67 30 -158 8 -41 17 -88 20 -105 9 -50 24
-132 34 -187 6 -29 17 -89 25 -133 8 -44 18 -93 21 -110 10 -61 16 -92 31
-170 9 -44 18 -93 21 -110 2 -16 12 -71 22 -121 l17 -92 -24 -43 c-98 -173
-161 -252 -225 -286 -32 -16 -106 -21 -145 -9 -23 8 -21 11 -41 -82 -11 -51
-10 -52 80 -56 131 -5 217 36 296 141 15 21 30 40 33 43 5 4 242 396 296 489
12 20 155 258 318 529 163 272 296 495 296 498 0 2 -37 4 -83 4 l-82 0 -33
-57 c-47 -84 -80 -141 -172 -298 -45 -77 -92 -158 -105 -180 -12 -22 -52 -91
-89 -154 -36 -62 -66 -118 -66 -122 0 -5 -4 -9 -10 -9 -5 0 -10 -4 -10 -9 0
-16 -114 -205 -117 -195 -2 7 -21 114 -49 282 -2 12 -6 32 -8 45 -2 12 -7 40
-11 62 -9 55 -14 86 -20 115 -2 14 -18 108 -35 210 -31 188 -39 233 -45 260
-2 8 -4 22 -4 31 -1 14 -15 17 -87 18 l-86 1 7 -42z"/>
<path d="M1167 2224 c-1 -1 -33 -4 -72 -7 -349 -31 -548 -263 -489 -573 38
-203 178 -297 554 -369 166 -31 261 -57 333 -89 120 -53 180 -144 179 -271 -1
-171 -96 -282 -282 -330 -82 -21 -238 -25 -319 -9 -168 35 -278 137 -325 304
-12 46 -24 110 -26 143 0 4 -39 7 -86 7 l-86 0 6 -78 c11 -154 70 -279 177
-377 48 -44 161 -109 208 -121 9 -2 34 -8 56 -13 51 -13 147 -24 205 -24 295
1 531 131 613 339 51 132 37 311 -35 418 -83 122 -267 202 -607 261 -19 3 -37
8 -41 10 -4 2 -22 7 -41 10 -59 10 -172 46 -198 63 -84 55 -123 126 -122 227
1 202 154 323 415 329 274 7 437 -116 450 -339 1 -25 27 -31 116 -27 47 3 68
7 65 15 -2 7 -6 28 -9 47 -19 120 -64 217 -137 295 -51 54 -145 109 -215 126
-21 5 -48 12 -59 14 -33 8 -222 24 -228 19z"/>
<path d="M1999 2150 c0 -51 0 -1594 0 -1657 l1 -48 77 5 78 5 1 375 c2 427 4
463 33 544 43 123 138 205 263 224 166 25 288 -19 341 -123 35 -70 38 -111 38
-568 1 -248 2 -454 4 -457 2 -3 37 -4 79 -2 l76 4 0 451 c-1 488 -6 552 -54
646 -61 121 -170 179 -352 185 -164 5 -260 -26 -358 -115 -36 -34 -66 -59 -67
-57 0 1 -1 144 -2 316 l0 312 -79 0 -78 0 -1 -40z"/>
<path d="M3610 1733 c-38 -6 -123 -34 -137 -46 -7 -5 -13 -7 -13 -3 0 12 -96
-54 -139 -96 -70 -68 -143 -193 -156 -268 -1 -3 -4 -14 -8 -25 -20 -63 -31
-296 -16 -364 4 -20 10 -49 12 -66 25 -158 150 -329 286 -391 231 -106 514
-64 676 100 71 72 134 189 154 286 6 30 14 66 17 80 9 43 6 253 -5 288 -5 17
-8 32 -6 32 2 0 -7 32 -21 72 -66 195 -181 316 -361 379 -56 20 -219 32 -283
22z m190 -138 c99 -17 206 -103 259 -209 50 -98 65 -174 64 -321 0 -199 -45
-334 -142 -424 -37 -35 -118 -76 -168 -86 -31 -6 -144 -7 -183 -2 -42 6 -130
38 -130 48 0 5 -6 9 -13 9 -25 0 -95 81 -125 144 -29 59 -45 116 -57 201 -7
49 -7 190 0 230 25 143 67 238 135 304 70 69 77 73 159 97 73 21 122 23 201 9z"/>
<path d="M4838 1716 c-80 -26 -163 -81 -218 -144 l-40 -47 0 88 c0 62 -4 87
-12 88 -43 4 -131 3 -137 -1 -4 -3 -7 -386 -7 -852 l1 -848 77 0 78 0 0 302 0
302 33 -35 c93 -101 201 -150 337 -152 58 -1 164 11 193 22 121 47 148 63 212
126 126 124 188 307 181 535 -5 136 -10 172 -37 253 -55 165 -171 292 -319
351 -96 38 -246 43 -342 12z m239 -120 c215 -48 331 -292 298 -621 -4 -38 -9
-73 -12 -78 -2 -4 -6 -20 -9 -35 -6 -36 -68 -161 -96 -192 -86 -96 -223 -140
-366 -118 -201 31 -322 233 -315 528 2 122 5 143 27 228 20 74 65 154 115 201
34 33 158 97 168 88 2 -3 16 -2 31 2 27 8 121 6 159 -3z"/>
</g>
</svg>
