<?xml version="1.0" encoding="UTF-8"?>
<svg id="Layer_2" xmlns="http://www.w3.org/2000/svg" viewBox="0 0 126.68 149.93">
    <g id="Layer_1-2">
        <g>
            <path d="M14.69,3.81H.48V0H33.04V3.81h-14.01V43.52h-4.35V3.81Z" />
            <path
                d="M34.88,0h3.94V15.98c3.06-3.54,5.51-4.62,10-4.62,8.36,0,10.81,4.35,10.81,11.97v20.19h-3.94V23.05c0-5.98-2.18-8.43-7.62-8.43-5.85,0-9.25,3.94-9.25,10.61v18.29h-3.94V0Z" />
            <path
                d="M87.17,33.72h3.94c-1.16,6.26-5.1,10.61-13.94,10.61s-14.08-5.98-14.08-16.05,5.17-17,14.42-17c10.06,0,14.28,6.94,14.07,17.13h-24.61c.07,8.16,4.62,12.65,10.61,12.65,4.83,0,8.84-2.72,9.59-7.34Zm-19.99-8.63h20.47c-.34-6.73-4.42-10.61-10.06-10.61s-9.45,3.81-10.4,10.61Z" />
            <path
                d="M0,91.12L9.25,47.6h4.35l-4.9,22.51,28.01-22.51h5.44l-22.1,17.75,13.05,25.77h-5.17l-11.56-22.78-8.7,6.8-3.4,15.98H0Z" />
            <path
                d="M63.92,70.92c0,10.06-6.46,21.01-18.63,21.01-7.41,0-11.56-4.08-11.56-11.35,0-8.91,5.85-21.69,18.63-21.69,7.21,0,11.56,4.69,11.56,12.04Zm-17.88,17.75c8.43,0,13.67-8.23,13.67-17.41,0-5.58-2.86-9.04-8.09-9.04s-13.67,5.37-13.67,18.09c0,5.37,2.72,8.36,8.09,8.36Z" />
            <path
                d="M61.34,102.33l9.04-42.56h3.94l-1.02,4.49c3.67-3.74,7.07-5.37,11.42-5.37,6.73,0,10.81,4.62,10.81,11.7,0,1.43-.2,2.92-.54,4.56-1.97,9.18-8.23,16.79-18.09,16.79-4.08,0-6.53-1.43-8.36-4.76l-3.33,15.16h-3.88Zm30.19-31.55c0-5.3-2.72-8.57-7.55-8.57-8.09,0-11.76,6.6-13.26,13.46-.34,1.7-.54,3.26-.54,4.62,0,5.37,2.58,8.43,7.48,8.43,6.66,0,11.56-5.03,13.39-13.67,.34-1.5,.48-2.92,.48-4.28Z" />
            <path
                d="M92.96,98.66c1.16,.34,1.63,.41,2.31,.41,3.88,0,6.19-5.58,8.09-8.64l-5.71-30.66h4.22l4.42,25.91,15.03-25.91h4.21l-22.03,36.65c-2.72,4.49-4.76,5.92-8.7,5.92-.95,0-1.43-.07-2.58-.27l.75-3.4Z" />
            <path
                d="M6.26,124.23c.48,7.48,4.42,11.63,12.03,11.63s11.83-3.33,11.83-8.84c0-13.67-26.99-3.67-26.99-20.6,0-7.55,5.64-12.03,15.16-12.03s14.48,4.15,15.3,12.85h-4.42c-.2-6.6-4.62-9.18-10.88-9.18-6.87,0-10.88,3.06-10.88,8.43,0,2.72,1.43,4.96,4.08,5.98,8.02,3.06,22.85,1.9,22.85,14.07,0,9.04-8.23,12.99-16.11,12.99-6.87,0-12.31-2.92-14.75-7.89-1.16-2.38-1.36-3.81-1.5-7.41H6.26Z" />
            <path
                d="M38.21,95.2h3.94v15.98c3.06-3.54,5.51-4.62,10-4.62,8.36,0,10.81,4.35,10.81,11.97v20.19h-3.94v-20.47c0-5.98-2.18-8.43-7.62-8.43-5.85,0-9.25,3.94-9.25,10.61v18.29h-3.94v-43.52Z" />
            <path
                d="M80.99,106.49c8.63,0,14.55,6.73,14.55,16.59s-5.37,16.46-14.55,16.46-14.48-6.12-14.48-16.46,5.98-16.59,14.48-16.59Zm0,29.78c6.8,0,10.4-4.62,10.4-13.19,0-7.96-4.01-13.26-10.4-13.26s-10.33,5.3-10.33,13.26c0,8.57,3.6,13.19,10.33,13.19Z" />
            <path
                d="M98.8,149.93v-42.56h3.88v4.49c2.92-3.74,5.92-5.37,10.27-5.37,8.09,0,13.73,6.66,13.73,16.25s-4.62,16.79-14.55,16.79c-3.94,0-6.8-1.43-9.45-4.76v15.16h-3.88Zm14.07-40.12c-8.09,0-10.33,6.6-10.33,13.46,0,8.23,3.6,13.05,9.66,13.05,6.73,0,10.54-5.03,10.54-13.67,0-7.82-3.81-12.85-9.86-12.85Z" />
        </g>
    </g>
</svg>